<?xml version="1.0" encoding="utf-8"?><!DOCTYPE svg PUBLIC "-//W3C//DTD SVG 1.1//EN" "http://www.w3.org/Graphics/SVG/1.1/DTD/svg11.dtd"><svg xmlns="http://www.w3.org/2000/svg" viewBox="0 0 49 49" shape-rendering="crispEdges"><path fill="#FFFFFF" d="M0 0h49v49H0z"/><path stroke="#111827" d="M6 6.5h7m1 0h1m1 0h1m4 0h1m1 0h3m6 0h1m1 0h1m1 0h7M6 7.5h1m5 0h1m1 0h2m9 0h1m1 0h1m1 0h1m2 0h3m1 0h1m5 0h1M6 8.5h1m1 0h3m1 0h1m1 0h1m1 0h4m3 0h1m2 0h1m1 0h2m2 0h1m1 0h1m1 0h1m1 0h3m1 0h1M6 9.5h1m1 0h3m1 0h1m2 0h1m3 0h5m1 0h1m2 0h5m3 0h1m1 0h3m1 0h1M6 10.5h1m1 0h3m1 0h1m2 0h3m5 0h1m2 0h1m1 0h1m7 0h1m1 0h3m1 0h1M6 11.5h1m5 0h1m1 0h2m2 0h2m3 0h1m1 0h3m1 0h1m3 0h2m1 0h1m5 0h1M6 12.5h7m1 0h1m1 0h1m1 0h1m1 0h1m1 0h1m1 0h1m1 0h1m1 0h1m1 0h1m1 0h1m1 0h1m1 0h7M14 13.5h2m1 0h1m1 0h3m1 0h1m1 0h2m3 0h1m3 0h1M8 14.5h3m1 0h1m1 0h4m4 0h3m1 0h1m3 0h2m2 0h4m2 0h3M6 15.5h1m2 0h1m4 0h2m2 0h3m5 0h1m1 0h1m1 0h2m2 0h1m4 0h1M8 16.5h1m3 0h2m1 0h1m3 0h1m1 0h1m1 0h3m3 0h1m1 0h3m2 0h1m2 0h4M6 17.5h3m2 0h1m2 0h3m1 0h1m1 0h4m1 0h1m1 0h1m1 0h2m1 0h2m2 0h3m2 0h2M9 18.5h1m1 0h2m2 0h3m5 0h2m5 0h4m1 0h2m1 0h3M6 19.5h3m2 0h1m3 0h1m3 0h1m1 0h2m1 0h1m1 0h1m1 0h1m3 0h1m1 0h2m3 0h2M6 20.5h2m2 0h3m1 0h1m4 0h1m3 0h1m1 0h1m1 0h3m1 0h3m1 0h1m3 0h1m1 0h2M6 21.5h2m2 0h2m1 0h2m1 0h1m1 0h2m4 0h3m1 0h1m1 0h1m6 0h1M6 22.5h1m2 0h1m2 0h3m1 0h3m2 0h2m3 0h1m2 0h5m2 0h1m1 0h1m1 0h1m1 0h1M6 23.5h1m2 0h1m1 0h1m1 0h1m4 0h2m1 0h1m4 0h2m1 0h2m3 0h1m2 0h1M6 24.5h1m3 0h6m2 0h1m4 0h3m2 0h1m1 0h1m1 0h4m1 0h1m3 0h2M8 25.5h4m1 0h9m3 0h3m1 0h1m2 0h5M6 26.5h1m2 0h2m1 0h2m1 0h2m1 0h2m2 0h3m1 0h1m3 0h2m3 0h4m1 0h1M7 27.5h2m1 0h2m1 0h1m3 0h1m1 0h2m2 0h4m1 0h1m2 0h1m5 0h1m3 0h1M7 28.5h1m1 0h1m2 0h1m3 0h1m2 0h1m2 0h5m3 0h4m1 0h1m3 0h1m1 0h2M10 29.5h2m1 0h1m1 0h1m1 0h1m1 0h3m1 0h2m1 0h1m1 0h2m2 0h1m4 0h1m3 0h2M9 30.5h1m1 0h2m1 0h1m2 0h1m2 0h2m1 0h3m2 0h2m4 0h3m1 0h5M6 31.5h1m2 0h2m6 0h5m2 0h3m1 0h1m1 0h1m3 0h1m2 0h1m1 0h1M6 32.5h1m1 0h1m1 0h1m1 0h1m3 0h4m1 0h2m5 0h1m2 0h1m1 0h2m1 0h2m2 0h3M6 33.5h1m3 0h1m3 0h9m1 0h1m1 0h3m1 0h1m1 0h2m1 0h1m1 0h1m4 0h1M6 34.5h1m1 0h2m1 0h4m2 0h4m1 0h1m3 0h3m1 0h12M14 35.5h1m1 0h2m2 0h5m3 0h2m1 0h1m2 0h1m3 0h1M6 36.5h7m2 0h2m2 0h1m1 0h1m4 0h3m1 0h1m3 0h1m1 0h1m1 0h2m1 0h2M6 37.5h1m5 0h1m2 0h2m1 0h1m1 0h3m1 0h2m2 0h2m2 0h1m1 0h1m3 0h1m2 0h1M6 38.5h1m1 0h3m1 0h1m1 0h1m5 0h1m1 0h1m4 0h1m2 0h9m1 0h2M6 39.5h1m1 0h3m1 0h1m1 0h1m2 0h2m1 0h4m2 0h1m4 0h1m1 0h2m1 0h1m1 0h2M6 40.5h1m1 0h3m1 0h1m1 0h1m1 0h2m2 0h3m2 0h2m1 0h5m2 0h1m1 0h1m2 0h1m1 0h1M6 41.5h1m5 0h1m2 0h3m4 0h1m1 0h4m1 0h1m3 0h3m1 0h1m4 0h1M6 42.5h7m2 0h1m2 0h4m1 0h1m1 0h5m1 0h2m2 0h2m2 0h4"/></svg>
